<svg xmlns="http://www.w3.org/2000/svg" width="1459" height="768" viewBox="0 0 1459 768" fill="none"><metadata><rdf:RDF xmlns:rdf="http://www.w3.org/1999/02/22-rdf-syntax-ns#" xmlns:dc="http://purl.org/dc/elements/1.1/"><rdf:Description><dc:creator>RealFaviconGenerator</dc:creator><dc:source>https://realfavicongenerator.net</dc:source></rdf:Description></rdf:RDF></metadata><path d="M0 767V70.172L331.813 3L330.75 310.5H339.156C341.25 276.906 345.984 242.078 353.328 206.031C360.672 169.984 372.578 137.265 389.031 107.859C405.469 78.453 427.344 54.125 454.656 34.875C481.954 15.625 516.25 6 557.563 6C589.751 6 618.454 11.438 643.657 22.281C668.845 33.125 690.204 48 707.704 66.89C725.204 85.78 738.673 108.171 748.126 134.062C757.579 159.953 763.001 187.937 764.407 218.031V767H442.063L438.907 253.547C438.907 231.859 436.454 214 431.548 200C426.642 186 418.251 179 406.36 179C395.157 179 385.532 187.578 377.485 204.734C369.422 221.89 362.594 243.578 357.001 269.828C351.408 296.078 346.86 324.953 343.36 356.453C339.86 387.953 337.235 418.578 335.485 448.328C333.735 478.078 332.501 504.687 331.797 528.125C331.094 551.578 330.75 568.203 330.75 578L331.813 767H0ZM781.657 129.219C824.282 84.406 878.97 51.656 945.704 31C1012.44 10.344 1086.06 0 1166.56 0L1445.86 1L1379.7 311C1368.5 285.109 1356.78 260.969 1344.53 238.562C1332.28 216.155 1319.5 194.812 1306.2 174.499C1295 157.702 1282.75 141.077 1269.45 124.624C1256.14 108.186 1242.31 93.483 1227.97 80.53C1213.63 67.577 1198.75 57.249 1183.34 49.546C1167.94 41.859 1152.55 38 1137.16 38C1114.05 38 1094.8 48.141 1079.41 68.406C1064 88.672 1051.58 113.312 1042.13 142.312C1032.67 171.312 1026.02 201.718 1022.17 233.515C1018.33 265.312 1016.41 292.39 1016.41 314.749C1017.1 349.687 1022.17 386.733 1031.63 425.858C1041.08 464.999 1054.74 501.171 1072.58 534.358C1090.42 567.561 1112.3 594.811 1138.2 616.124C1164.11 637.437 1194.2 647.405 1228.5 645.999C1247.41 645.311 1264.91 641.64 1281 634.983C1297.09 628.326 1311.97 619.936 1325.63 609.78C1339.28 599.624 1351.7 588.077 1362.91 575.124C1374.09 562.186 1384.25 548.702 1393.36 534.702C1403.86 518.608 1413.49 501.624 1422.24 483.78C1430.99 465.936 1438.86 446.858 1445.86 426.546L1458.45 428.655C1445.86 476.249 1429.41 520.702 1409.11 561.999C1388.8 603.312 1363.59 639.202 1333.5 669.687C1303.41 700.172 1268.05 724.171 1227.45 741.703C1186.86 759.235 1139.95 768 1086.75 768C1025.88 768 971.345 756.281 923.142 732.812C874.939 709.343 833.033 677.656 797.408 637.718V218.531V215.375C796 183.859 790.75 155.141 781.657 129.219Z" fill="#222222"></path><style>@media (prefers-color-scheme: light) { :root { filter: none; } }
@media (prefers-color-scheme: dark) { :root { filter: contrast(0.3846153846153846) brightness(4.5); } }
</style></svg>